<svg xmlns="http://www.w3.org/2000/svg" xmlns:xlink="http://www.w3.org/1999/xlink" id="Capa_1" x="0px" y="0px" viewBox="0 0 80 36.8" style="enable-background:new 0 0 80 36.8;" xml:space="preserve"><style type="text/css">	.st0{fill:#EFB810;}</style><g>	<g>		<path class="st0" d="M6.6,32c0.5-0.2,0.9-0.7,0.9-1.4c0-1.2-0.9-1.7-2.1-1.7H3.1v5.2h1.3V30h1c0.5,0,0.9,0.2,0.9,0.6   c0,0.5-0.4,0.7-0.8,0.7H4.8l1.8,2.9H8L6.6,32L6.6,32z"></path>		<path class="st0" d="M8.6,28.9h1.3v5.2H8.6V28.9z"></path>		<path class="st0" d="M15.7,34.3L15.4,34c-0.4,0.2-0.9,0.3-1.5,0.3c-1.8,0-3-1.1-3-2.7s1.2-2.7,3-2.7s3.1,1.1,3.1,2.7   c0,0.7-0.2,1.4-0.7,1.8l0.9,0.9H15.7L15.7,34.3z M14.6,33.1l-1-1.1H15l0.4,0.5c0.2-0.2,0.3-0.6,0.3-0.9c0-1-0.7-1.6-1.8-1.6   s-1.8,0.6-1.8,1.6c0,1,0.8,1.6,1.8,1.6C14.2,33.1,14.4,33.1,14.6,33.1L14.6,33.1z"></path>		<path class="st0" d="M23,28.9V32c0,1.4-0.8,2.2-2.5,2.2s-2.5-0.8-2.5-2.2v-3.1h1.3V32c0,0.7,0.4,1.1,1.3,1.1   c0.9,0,1.3-0.4,1.3-1.1v-3.1H23L23,28.9z"></path>		<path class="st0" d="M28.2,33.1v1H24v-5.2h4.2v1h-2.9v0.9h2.8v1h-2.8v1.2L28.2,33.1L28.2,33.1z"></path>		<path class="st0" d="M29.8,33.1h3.5v1h-4.5v-1.7l3.4-2.5H29v-1h4.2v1.7L29.8,33.1L29.8,33.1z"></path>		<path class="st0" d="M38.4,33.1h-3l-0.4,1h-1.3l2.3-5.2h1.9l2.3,5.2h-1.3L38.4,33.1L38.4,33.1z M35.8,32.1H38l-1.1-2.5L35.8,32.1z   "></path>		<path class="st0" d="M48.6,31.5c0,1.5-1,2.6-2.9,2.6h-2.3v-5.2h2.4C47.7,28.9,48.6,30.1,48.6,31.5L48.6,31.5z M47.4,31.5   c0-0.9-0.6-1.5-1.5-1.5h-1.2v3.1h1.2C46.8,33.1,47.4,32.5,47.4,31.5L47.4,31.5z"></path>		<path class="st0" d="M49.6,28.9h1.3v5.2h-1.3V28.9z"></path>		<path class="st0" d="M57,33.8c-0.5,0.3-1.3,0.5-2.1,0.5c-1.8,0-3-1.1-3-2.7c0-1.7,1.3-2.7,3.1-2.7c0.6,0,1.3,0.1,1.7,0.4v1.2   c-0.6-0.4-1.1-0.5-1.7-0.5c-1,0-1.8,0.6-1.8,1.6c0,1,0.7,1.6,1.7,1.6c0.3,0,0.6,0,0.9-0.1v-1.4H57L57,33.8L57,33.8z"></path>		<path class="st0" d="M58,28.9h1.3v5.2H58V28.9z"></path>		<path class="st0" d="M65.1,30h-1.9v4.1h-1.3V30H60v-1.1h5.1L65.1,30L65.1,30z"></path>		<path class="st0" d="M69.6,33.1h-3l-0.4,1h-1.3l2.3-5.2H69l2.3,5.2H70L69.6,33.1L69.6,33.1z M67,32.1h2.1l-1.1-2.5L67,32.1z"></path>		<path class="st0" d="M76,33.1v1.1H72v-5.2h1.3v4.1L76,33.1L76,33.1z"></path>		<circle class="st0" cx="41.3" cy="31.6" r="0.6"></circle>		<g>			<path class="st0" d="M60.7,15.4c0-0.1,0-0.2,0-0.4h0c-0.1-2.5-0.9-4.8-2.2-6.6c-0.1-0.1-0.1-0.2-0.2-0.2    c-0.1-0.1-0.1-0.2-0.2-0.2c-0.1-0.1-0.2-0.3-0.4-0.4c-0.1-0.1-0.1-0.1-0.2-0.2c0,0,0,0,0,0c-0.3-0.3-0.6-0.6-1-0.9l-0.3-0.2l0,0    c-1.9-1.3-4.2-2-6.9-2H36.3c0.3,0.2,0.6,0.5,0.8,0.8c1.1,1.1,1.9,2.6,2.4,4.1H45C47.3,7.8,49.9,7,52.6,7l1.8,0L54.2,8L54,8.6    c-0.1,0.6-0.3,1.2-0.5,1.8c0,0,0,0,0,0c0.1,0.1,0.3,0.2,0.4,0.4c0.3,0.3,0.6,0.7,0.8,1.1c0,0,0,0,0,0c0,0,0,0.1,0,0.1    c0,0,0,0,0,0c0.5,0.9,0.8,2.1,0.8,3.3c0.1,2-0.6,3.8-1.7,4.9c-1.1,1.1-2.7,1.7-4.6,1.7h-2.6l0.2-3.5c-2,2.6-3.8,5.4-4.9,8.5    l7.3,0c3.4,0,6.2-1.1,8.2-3.1C59.6,21.7,60.8,18.6,60.7,15.4L60.7,15.4z"></path>			<path class="st0" d="M49,9.1c-0.9,0.3-1.7,0.7-2.5,1.2c-0.3,0.2-0.7,0.5-1,0.7c-0.6,0.5-1,1-1.5,1.5c0,0,0,0,0,0    c-0.1,0.1-0.2,0.3-0.3,0.4c-0.6-0.1-1.8,0.1-3.2,1.4c0,0,0.8-0.1,1.7,0.4c0.1,0.1,0.2,0.1,0.3,0.2c-2,1.4-4.9,3.7-6.8,6.9    c0,0.1-0.1,0.1-0.1,0.2L32.7,19c5.3-1.2,6.8-8.8,3-12.5c-2.7-3-7.6-2.3-11.4-2.4c-1.9,0-3.8,0-5.7,0v22.8h5.1V15l9.6,11.9h5.5    c0-0.1,0.1-0.2,0.1-0.2c1-3,3.2-6.4,5.4-9.5c0.1,0.2,0.2,0.4,0.2,0.6c0.2,0.8,0,1.5,0,1.5c0.5-0.3,0.9-0.7,1.2-1    c0.6-0.8,0.8-1.4,0.8-1.9c0.6-0.3,1.2-0.7,1.8-1.1c0.1-0.1,0.3-0.2,0.4-0.3c1.2-1,2.1-2.1,2.7-3.4c0.3-0.6,0.6-1.2,0.8-1.9    c0.1-0.4,0.2-0.8,0.3-1.2C51.3,8.5,50.1,8.7,49,9.1L49,9.1z M23.7,15V9l3.2,0c0.5,0,1,0,1.5,0l0,0c2.4,0.1,4.5,0.6,4.4,3.1    C32.5,16.1,26.5,15.1,23.7,15L23.7,15z M49.5,12.1c-0.1,0.1-0.1,0.1-0.2,0.1c-0.3,0.2-0.7,0.1-1-0.1c0,0,0,0-0.1-0.1    c0,0-0.1-0.1-0.1-0.1c0-0.1-0.1-0.1-0.1-0.2c-0.2-0.3-0.1-0.7,0.1-1c0-0.1,0.1-0.1,0.1-0.1c0.4-0.3,1-0.3,1.4,0.1    c0.3,0.3,0.3,0.8,0.1,1.1C49.6,12,49.6,12.1,49.5,12.1L49.5,12.1z M46.7,12.3c0.1-0.1,0.2-0.1,0.2-0.1c0.2-0.1,0.5,0,0.7,0.2    c0,0,0,0,0,0.1c0.2,0.2,0.2,0.5,0.1,0.7c0,0.1-0.1,0.2-0.2,0.3c-0.2,0.2-0.6,0.2-0.9,0c-0.1,0-0.1-0.1-0.1-0.1    c0-0.1-0.1-0.1-0.1-0.2c-0.1-0.1-0.1-0.3,0-0.4C46.5,12.5,46.6,12.4,46.7,12.3L46.7,12.3z M45,14.6c-0.2-0.2-0.1-0.5,0.1-0.7    c0.2-0.2,0.5-0.1,0.7,0.1c0.2,0.2,0.1,0.5-0.1,0.7C45.5,14.8,45.2,14.8,45,14.6L45,14.6z"></path>		</g>	</g></g></svg>